<?xml version="1.0" encoding="utf-8"?>
<!-- Generator: Adobe Illustrator 19.2.1, SVG Export Plug-In . SVG Version: 6.00 Build 0)  -->
<svg version="1.1" id="Layer_1" xmlns="http://www.w3.org/2000/svg" xmlns:xlink="http://www.w3.org/1999/xlink" x="0px" y="0px"
	 viewBox="0 0 600 600" style="enable-background:new 0 0 600 600;" xml:space="preserve">
<style type="text/css">
	.st0{fill:#334466;}
	.st1{fill:#FFC00E;}
	.st2{fill:#FFFFFF;}
	.st3{fill:#999999;}
</style>
<g>
	<g>
		<circle id="XMLID_14_" class="st1" cx="177.7" cy="297.7" r="63.4"/>
		<path class="st2" d="M430.1,319.6L386.2,286l36.5-49.4c23.4-31.7,26.9-73.2,9.2-108.3C413.7,92.3,377.1,70,336.3,70H139l14,79.5
			h183.3c15.9,0,22.8,11.2,24.5,14.6c2.5,4.9,5.5,14.8-2.2,25.2l-52.2,70.8c-13.5,18.3-13.9,43.2-0.9,61.9l3.6,5.1l72.7,55.6
			c19.9,15.3,14.9,36.1,12.8,42.1c-2,6-10.6,25.6-35.7,25.6H205.9l14,79.5h138.9c51.1,0,94.7-31.3,111.1-79.7
			C486.3,401.9,470.6,350.6,430.1,319.6z"/>
	</g>
</g>
</svg>
